<svg width="35" height="565" viewBox="0 0 35 565" fill="none" xmlns="http://www.w3.org/2000/svg">
<line x1="19.5" x2="19.5" y2="251" stroke="#7CB3E2" stroke-width="5"/>
<line x1="19.5" y1="314" x2="19.5" y2="565" stroke="#7CB3E2" stroke-width="5"/>
<mask id="path-3-outside-1_70_31" maskUnits="userSpaceOnUse" x="0" y="276" width="34" height="19" fill="black">
<rect fill="white" y="276" width="34" height="19"/>
<path d="M8.51136 293.298C7.01989 293.298 5.72727 292.97 4.63352 292.314C3.53977 291.658 2.69129 290.74 2.08807 289.56C1.49148 288.38 1.19318 287.001 1.19318 285.423C1.19318 283.846 1.49148 282.464 2.08807 281.277C2.69129 280.09 3.53977 279.169 4.63352 278.513C5.72727 277.857 7.01989 277.528 8.51136 277.528C10.0028 277.528 11.2955 277.857 12.3892 278.513C13.483 279.169 14.3281 280.09 14.9247 281.277C15.5279 282.464 15.8295 283.846 15.8295 285.423C15.8295 287.001 15.5279 288.38 14.9247 289.56C14.3281 290.74 13.483 291.658 12.3892 292.314C11.2955 292.97 10.0028 293.298 8.51136 293.298ZM8.53125 290.415C9.33996 290.415 10.0161 290.193 10.5597 289.749C11.1032 289.298 11.5076 288.695 11.7727 287.939C12.0445 287.183 12.1804 286.341 12.1804 285.413C12.1804 284.479 12.0445 283.634 11.7727 282.878C11.5076 282.116 11.1032 281.509 10.5597 281.058C10.0161 280.607 9.33996 280.382 8.53125 280.382C7.70265 280.382 7.01326 280.607 6.46307 281.058C5.91951 281.509 5.51184 282.116 5.24006 282.878C4.97491 283.634 4.84233 284.479 4.84233 285.413C4.84233 286.341 4.97491 287.183 5.24006 287.939C5.51184 288.695 5.91951 289.298 6.46307 289.749C7.01326 290.193 7.70265 290.415 8.53125 290.415ZM28.619 286.577V277.727H32.2184V293H28.7283V290.286H28.5692C28.2246 291.141 27.6578 291.84 26.869 292.384C26.0868 292.927 25.1223 293.199 23.9755 293.199C22.9746 293.199 22.0896 292.977 21.3207 292.533C20.5584 292.082 19.9618 291.429 19.5309 290.574C19.1 289.712 18.8846 288.671 18.8846 287.452V277.727H22.484V286.895C22.484 287.863 22.7492 288.632 23.2795 289.202C23.8098 289.772 24.5058 290.057 25.3675 290.057C25.8978 290.057 26.4116 289.928 26.9087 289.669C27.4059 289.411 27.8136 289.026 28.1317 288.516C28.4566 287.999 28.619 287.352 28.619 286.577Z"/>
</mask>
<path d="M8.51136 293.298C7.01989 293.298 5.72727 292.97 4.63352 292.314C3.53977 291.658 2.69129 290.74 2.08807 289.56C1.49148 288.38 1.19318 287.001 1.19318 285.423C1.19318 283.846 1.49148 282.464 2.08807 281.277C2.69129 280.09 3.53977 279.169 4.63352 278.513C5.72727 277.857 7.01989 277.528 8.51136 277.528C10.0028 277.528 11.2955 277.857 12.3892 278.513C13.483 279.169 14.3281 280.09 14.9247 281.277C15.5279 282.464 15.8295 283.846 15.8295 285.423C15.8295 287.001 15.5279 288.38 14.9247 289.56C14.3281 290.74 13.483 291.658 12.3892 292.314C11.2955 292.97 10.0028 293.298 8.51136 293.298ZM8.53125 290.415C9.33996 290.415 10.0161 290.193 10.5597 289.749C11.1032 289.298 11.5076 288.695 11.7727 287.939C12.0445 287.183 12.1804 286.341 12.1804 285.413C12.1804 284.479 12.0445 283.634 11.7727 282.878C11.5076 282.116 11.1032 281.509 10.5597 281.058C10.0161 280.607 9.33996 280.382 8.53125 280.382C7.70265 280.382 7.01326 280.607 6.46307 281.058C5.91951 281.509 5.51184 282.116 5.24006 282.878C4.97491 283.634 4.84233 284.479 4.84233 285.413C4.84233 286.341 4.97491 287.183 5.24006 287.939C5.51184 288.695 5.91951 289.298 6.46307 289.749C7.01326 290.193 7.70265 290.415 8.53125 290.415ZM28.619 286.577V277.727H32.2184V293H28.7283V290.286H28.5692C28.2246 291.141 27.6578 291.84 26.869 292.384C26.0868 292.927 25.1223 293.199 23.9755 293.199C22.9746 293.199 22.0896 292.977 21.3207 292.533C20.5584 292.082 19.9618 291.429 19.5309 290.574C19.1 289.712 18.8846 288.671 18.8846 287.452V277.727H22.484V286.895C22.484 287.863 22.7492 288.632 23.2795 289.202C23.8098 289.772 24.5058 290.057 25.3675 290.057C25.8978 290.057 26.4116 289.928 26.9087 289.669C27.4059 289.411 27.8136 289.026 28.1317 288.516C28.4566 287.999 28.619 287.352 28.619 286.577Z" fill="#7CB3E2"/>
<path d="M4.63352 292.314L4.11903 293.171L4.11903 293.171L4.63352 292.314ZM2.08807 289.56L1.19565 290.011L1.19768 290.015L2.08807 289.56ZM2.08807 281.277L1.19664 280.824L1.19464 280.828L2.08807 281.277ZM4.63352 278.513L5.14802 279.37L5.14802 279.37L4.63352 278.513ZM12.3892 278.513L11.8747 279.37L11.8747 279.37L12.3892 278.513ZM14.9247 281.277L14.0313 281.726L14.0333 281.73L14.9247 281.277ZM14.9247 289.56L14.0343 289.104L14.0323 289.108L14.9247 289.56ZM12.3892 292.314L11.8747 291.456L11.8747 291.456L12.3892 292.314ZM10.5597 289.749L11.1924 290.523L11.198 290.518L10.5597 289.749ZM11.7727 287.939L10.8317 287.6L10.8291 287.608L11.7727 287.939ZM11.7727 282.878L10.8282 283.206L10.8317 283.216L11.7727 282.878ZM10.5597 281.058L11.198 280.288L11.198 280.288L10.5597 281.058ZM6.46307 281.058L5.82931 280.285L5.82473 280.288L6.46307 281.058ZM5.24006 282.878L4.29812 282.542L4.29646 282.547L5.24006 282.878ZM5.24006 287.939L4.29643 288.27L4.29906 288.277L5.24006 287.939ZM6.46307 289.749L5.82468 290.518L5.83495 290.527L6.46307 289.749ZM8.51136 293.298V292.298C7.17006 292.298 6.06171 292.005 5.14802 291.456L4.63352 292.314L4.11903 293.171C5.39283 293.936 6.86971 294.298 8.51136 294.298V293.298ZM4.63352 292.314L5.14802 291.456C4.22118 290.9 3.49998 290.125 2.97846 289.104L2.08807 289.56L1.19768 290.015C1.8826 291.355 2.85836 292.415 4.11903 293.171L4.63352 292.314ZM2.08807 289.56L2.98048 289.108C2.46704 288.093 2.19318 286.874 2.19318 285.423H1.19318H0.193182C0.193182 287.128 0.515914 288.667 1.19566 290.011L2.08807 289.56ZM1.19318 285.423H2.19318C2.19318 283.973 2.46698 282.75 2.98149 281.726L2.08807 281.277L1.19464 280.828C0.515973 282.178 0.193182 283.719 0.193182 285.423H1.19318ZM2.08807 281.277L2.97949 281.73C3.50144 280.703 4.22262 279.926 5.14802 279.37L4.63352 278.513L4.11903 277.655C2.85693 278.413 1.88113 279.477 1.19665 280.824L2.08807 281.277ZM4.63352 278.513L5.14802 279.37C6.06171 278.822 7.17006 278.528 8.51136 278.528V277.528V276.528C6.86971 276.528 5.39283 276.891 4.11903 277.655L4.63352 278.513ZM8.51136 277.528V278.528C9.85267 278.528 10.961 278.822 11.8747 279.37L12.3892 278.513L12.9037 277.655C11.6299 276.891 10.153 276.528 8.51136 276.528V277.528ZM12.3892 278.513L11.8747 279.37C12.7991 279.925 13.5161 280.702 14.0313 281.726L14.9247 281.277L15.8181 280.828C15.1401 279.479 14.1668 278.413 12.9037 277.655L12.3892 278.513ZM14.9247 281.277L14.0333 281.73C14.5531 282.753 14.8295 283.974 14.8295 285.423H15.8295H16.8295C16.8295 283.717 16.5028 282.175 15.8161 280.824L14.9247 281.277ZM15.8295 285.423H14.8295C14.8295 286.873 14.553 288.09 14.0343 289.104L14.9247 289.56L15.8151 290.015C16.5029 288.67 16.8295 287.129 16.8295 285.423H15.8295ZM14.9247 289.56L14.0323 289.108C13.5176 290.126 12.8006 290.901 11.8747 291.456L12.3892 292.314L12.9037 293.171C14.1653 292.414 15.1387 291.353 15.8171 290.011L14.9247 289.56ZM12.3892 292.314L11.8747 291.456C10.961 292.005 9.85267 292.298 8.51136 292.298V293.298V294.298C10.153 294.298 11.6299 293.936 12.9037 293.171L12.3892 292.314ZM8.53125 290.415V291.415C9.53365 291.415 10.4436 291.135 11.1924 290.523L10.5597 289.749L9.92694 288.974C9.5886 289.251 9.14628 289.415 8.53125 289.415V290.415ZM10.5597 289.749L11.198 290.518C11.8992 289.937 12.3993 289.173 12.7163 288.27L11.7727 287.939L10.8291 287.608C10.6158 288.216 10.3072 288.659 9.92132 288.979L10.5597 289.749ZM11.7727 287.939L12.7137 288.277C13.0301 287.398 13.1804 286.439 13.1804 285.413H12.1804H11.1804C11.1804 286.244 11.0589 286.969 10.8317 287.6L11.7727 287.939ZM12.1804 285.413H13.1804C13.1804 284.382 13.0304 283.42 12.7137 282.539L11.7727 282.878L10.8317 283.216C11.0587 283.847 11.1804 284.576 11.1804 285.413H12.1804ZM11.7727 282.878L12.7172 282.549C12.4009 281.64 11.9011 280.872 11.198 280.288L10.5597 281.058L9.92132 281.828C10.3054 282.146 10.6143 282.591 10.8282 283.206L11.7727 282.878ZM10.5597 281.058L11.198 280.288C10.4493 279.668 9.5373 279.382 8.53125 279.382V280.382V281.382C9.14263 281.382 9.58294 281.547 9.92132 281.828L10.5597 281.058ZM8.53125 280.382V279.382C7.51159 279.382 6.58693 279.664 5.82932 280.285L6.46307 281.058L7.09681 281.832C7.43959 281.551 7.89371 281.382 8.53125 281.382V280.382ZM6.46307 281.058L5.82473 280.288C5.1236 280.87 4.6213 281.636 4.29813 282.542L5.24006 282.878L6.18198 283.214C6.40238 282.595 6.71542 282.148 7.1014 281.828L6.46307 281.058ZM5.24006 282.878L4.29646 282.547C3.98832 283.425 3.84233 284.384 3.84233 285.413H4.84233H5.84233C5.84233 284.573 5.96149 283.842 6.18366 283.209L5.24006 282.878ZM4.84233 285.413H3.84233C3.84233 286.437 3.98857 287.393 4.29646 288.27L5.24006 287.939L6.18366 287.608C5.96124 286.974 5.84233 286.246 5.84233 285.413H4.84233ZM5.24006 287.939L4.29906 288.277C4.62289 289.178 5.12548 289.938 5.82473 290.518L6.46307 289.749L7.1014 288.979C6.71353 288.657 6.40079 288.211 6.18105 287.6L5.24006 287.939ZM6.46307 289.749L5.83495 290.527C6.59253 291.138 7.51515 291.415 8.53125 291.415V290.415V289.415C7.89015 289.415 7.43399 289.247 7.09119 288.97L6.46307 289.749ZM28.619 277.727V276.727H27.619V277.727H28.619ZM32.2184 277.727H33.2184V276.727H32.2184V277.727ZM32.2184 293V294H33.2184V293H32.2184ZM28.7283 293H27.7283V294H28.7283V293ZM28.7283 290.286H29.7283V289.286H28.7283V290.286ZM28.5692 290.286V289.286H27.8942L27.6418 289.912L28.5692 290.286ZM26.869 292.384L26.3015 291.56L26.2983 291.562L26.869 292.384ZM21.3207 292.533L20.8117 293.393L20.8205 293.399L21.3207 292.533ZM19.5309 290.574L18.6365 291.021L18.6379 291.024L19.5309 290.574ZM18.8846 277.727V276.727H17.8846V277.727H18.8846ZM22.484 277.727H23.484V276.727H22.484V277.727ZM23.2795 289.202L22.5473 289.883L22.5473 289.883L23.2795 289.202ZM26.9087 289.669L26.4474 288.782L26.4474 288.782L26.9087 289.669ZM28.1317 288.516L27.285 287.984L27.2831 287.987L28.1317 288.516ZM28.619 286.577H29.619V277.727H28.619H27.619V286.577H28.619ZM28.619 277.727V278.727H32.2184V277.727V276.727H28.619V277.727ZM32.2184 277.727H31.2184V293H32.2184H33.2184V277.727H32.2184ZM32.2184 293V292H28.7283V293V294H32.2184V293ZM28.7283 293H29.7283V290.286H28.7283H27.7283V293H28.7283ZM28.7283 290.286V289.286H28.5692V290.286V291.286H28.7283V290.286ZM28.5692 290.286L27.6418 289.912C27.3734 290.577 26.9355 291.123 26.3016 291.56L26.869 292.384L27.4364 293.207C28.3801 292.557 29.0757 291.704 29.4967 290.659L28.5692 290.286ZM26.869 292.384L26.2983 291.562C25.7154 291.967 24.9606 292.199 23.9755 292.199V293.199V294.199C25.2839 294.199 26.4582 293.887 27.4396 293.205L26.869 292.384ZM23.9755 293.199V292.199C23.1274 292.199 22.4191 292.012 21.8208 291.667L21.3207 292.533L20.8205 293.399C21.7601 293.941 22.8217 294.199 23.9755 294.199V293.199ZM21.3207 292.533L21.8296 291.672C21.2454 291.326 20.776 290.823 20.4239 290.124L19.5309 290.574L18.6379 291.024C19.1475 292.035 19.8713 292.837 20.8117 293.393L21.3207 292.533ZM19.5309 290.574L20.4253 290.127C20.0799 289.436 19.8846 288.556 19.8846 287.452H18.8846H17.8846C17.8846 288.786 18.1202 289.989 18.6365 291.021L19.5309 290.574ZM18.8846 287.452H19.8846V277.727H18.8846H17.8846V287.452H18.8846ZM18.8846 277.727V278.727H22.484V277.727V276.727H18.8846V277.727ZM22.484 277.727H21.484V286.895H22.484H23.484V277.727H22.484ZM22.484 286.895H21.484C21.484 288.051 21.8056 289.085 22.5473 289.883L23.2795 289.202L24.0117 288.521C23.6928 288.178 23.484 287.674 23.484 286.895H22.484ZM23.2795 289.202L22.5473 289.883C23.2881 290.679 24.261 291.057 25.3675 291.057V290.057V289.057C24.7506 289.057 24.3315 288.864 24.0117 288.521L23.2795 289.202ZM25.3675 290.057V291.057C26.0676 291.057 26.7388 290.885 27.3701 290.556L26.9087 289.669L26.4474 288.782C26.0844 288.971 25.7281 289.057 25.3675 289.057V290.057ZM26.9087 289.669L27.3701 290.556C28.0377 290.209 28.5747 289.695 28.9804 289.045L28.1317 288.516L27.2831 287.987C27.0524 288.357 26.7741 288.612 26.4474 288.782L26.9087 289.669ZM28.1317 288.516L28.9785 289.048C29.4272 288.333 29.619 287.49 29.619 286.577H28.619H27.619C27.619 287.214 27.4859 287.664 27.285 287.984L28.1317 288.516Z" fill="#7CB3E2" mask="url(#path-3-outside-1_70_31)"/>
</svg>
