<?xml version="1.0" encoding="UTF-8"?>
<svg id="Layer_1" data-name="Layer 1" xmlns="http://www.w3.org/2000/svg" xmlns:xlink="http://www.w3.org/1999/xlink" viewBox="0 0 2972.91 3043.18">
  <defs>
    <style>
      .cls-1 {
        fill: #96c24b;
      }

      .cls-2 {
        clip-rule: evenodd;
      }

      .cls-2, .cls-3 {
        fill: none;
      }

      .cls-4 {
        fill: #fff;
        stroke: #1f5a92;
        stroke-miterlimit: 10;
      }

      .cls-5 {
        fill: url(#Dégradé_sans_nom_3);
      }

      .cls-6 {
        fill: #f6c82c;
        fill-rule: evenodd;
      }

      .cls-3 {
        clip-path: url(#clippath);
      }
    </style>
    <clipPath id="clippath">
      <path class="cls-2" d="m1147.14,1652.48c-1.98-72.09-34.72-108.14-98.22-108.14s-96.23,36.04-98.21,108.14h196.43Zm126.98,88.29h-323.41c0,35.39,10.09,63.49,30.26,84.49,20.17,21,47.79,31.58,82.84,31.58,45.64,0,84.66-16.54,117.06-49.61l78.37,76.39c-54.23,54.23-119.71,81.35-196.43,81.35-159.39,0-239.09-88.29-239.09-264.88,0-76.06,18.19-137.9,54.57-185.52,39.68-52.25,96.56-78.37,170.63-78.37s127.32,23.81,167.66,71.43c38.36,44.31,57.53,102.84,57.53,175.6v57.53Zm422.19,153.77c-44.97,46.96-101.85,70.44-170.64,70.44-76.72,0-135.25-25.46-175.59-76.39-37.04-46.96-55.56-109.79-55.56-188.49s18.52-141.2,55.56-187.5c25.62-32.34,58.57-54.4,98.85-66.21,54.05,22.73,116.29,34.39,186.59,34.24,19.41,5.81,36.86,11.4,52.75,17.01,2.72,2.59,5.4,5.26,8.04,8.01l-86.97,87.3c-25.13-27.12-52.74-40.67-83-40.67-67.96,0-101.85,49.27-101.85,147.82s33.89,148.81,101.85,148.81c30.26,0,57.87-13.56,83-40.68l86.97,86.31Zm113.07-330.31c30.61,23.73,67.78,58.57,109.6,109.9,29.07,39.01,56.83,67.44,85.5,92.77-2.2,12.52-5.15,23.32-8.82,32.4-13.73,33.07-38.86,49.6-75.56,49.6s-62.5-16.87-75.56-50.6c-8.43-21.16-12.73-53.9-12.73-98.21,0-40.46,4.97-72.61,14.89-96.46-12.42-15.04-24.55-27.98-37.31-39.41Zm-489.21-476.4s133.29,226.16,343.32,336.78c0,0,59.99-189.39-39.4-275.64-99.39-86.25-369.85-140.32-411.98-319.76,0,0-87.58,639.72,428.37,634.49,0,0,38.42,25.1,77.8,47.65h0s0,0,0,0h.02s.03.02.03.02l1.67.96c.75.43,1.59.83,2.5,1.2,2.89,1.45,7.08,3.44,12.04,5.5,2.24.93,4.72,2,7.42,3.24-26.77,43.09-40.15,102.36-40.15,177.81,0,176.59,72.75,264.88,218.26,264.88,97.92,0,163.03-39.63,195.35-118.88-21.68-12.45-46.53-29.19-68.4-45.75,36.07,23.35,80.64,41.51,104.74,46.51l-.1-59.64c-24.29-5.04-83.31-10.74-116.68-38.6-33.59-28.04-53-44.72-86.58-89.79-176.55-236.87-460.89-187.76-628.25-571Zm819.16,612.27c0,22.49-1.19,43.55-3.57,63.18-48.71-6.42-88.83-18.97-126.46-54.12h0c.05-2.97.07-5.98.07-9.06,0-43.65-4.63-76.39-13.72-98.22-13.07-33.07-38.2-49.6-75.56-49.6-13.73,0-25.86,2.68-36.39,8.04-36.49-25.5-78.75-45.57-117.98-68.5,36.13-37.07,87.58-55.62,154.37-55.62,146.16,0,219.24,87.96,219.24,263.89Z"/>
    </clipPath>
    <linearGradient id="Dégradé_sans_nom_3" data-name="Dégradé sans nom 3" x1="-1044.96" y1="-8740.6" x2="-1003.31" y2="-7723.93" gradientTransform="translate(2509.8 9578.27)" gradientUnits="userSpaceOnUse">
      <stop offset="0" stop-color="#76b72a"/>
      <stop offset="1" stop-color="#3a9d32"/>
    </linearGradient>
  </defs>
  <path class="cls-4" d="m2331.84,1089.18h1.06l-10.33-10.48c-24.03-26.85-49.34-52.52-75.83-76.94l-336.41-341.34-422.57-428.77-422.57,428.77-336.41,341.34c-26.49,24.42-51.8,50.1-75.83,76.94l-10.33,10.48h1.06c-171.9,196.88-276.04,454.45-276.04,736.34,0,618.63,501.5,1120.13,1120.13,1120.13s1120.12-501.5,1120.12-1120.13c0-281.9-104.15-539.46-276.04-736.34Z"/>
  <path class="cls-1" d="m1211.84,1182.2c2.39,7.75,4.93,15.46,7.62,23.12l2.67,7.58h-338.29c-35.99,0-68.71,14.71-92.41,38.42-23.71,23.71-38.42,56.42-38.42,92.41v1091.68c0,35.99,14.71,68.7,38.42,92.41,23.71,23.71,56.42,38.42,92.41,38.42h1207.83c35.99,0,68.7-14.71,92.41-38.42,23.71-23.71,38.42-56.42,38.42-92.41v-1091.68c0-35.99-14.71-68.7-38.42-92.41-23.71-23.71-56.42-38.42-92.41-38.42h-381.27l-2.79-8.37-1.58-4.38c-5.71-15.27-13.03-29.68-22.05-42.93-8.66-12.72-18.88-24.36-30.74-34.65-15.21-13.2-32.33-24.77-50.17-35.32-18.08-10.69-36.69-20.23-54.79-29.32-12.86-6.46-28.04-13.85-43.18-21.22-26.74-13.03-53.5-26.06-79.97-40.35-27.84-15.03-57.76-32.64-84.9-53.52-27.33-21.03-51.82-45.37-68.51-73.75-4.45-7.56-8.32-15.37-11.58-23.42-3.21-7.94-5.82-16.11-7.78-24.46l-20.83-88.73c-1.01-4.28-3.42-7.87-6.67-10.32-3.25-2.45-7.37-3.79-11.76-3.59-4.41.21-8.38,1.93-11.38,4.67-3,2.74-5.06,6.54-5.66,10.91l-12.36,90.3c-2.38,17.42-3.9,35.09-4.82,52.79-.94,17.87-1.29,35.65-1.33,53.2-.11,39.58,1.97,79.63,6.76,119.4,4.44,36.84,11.24,73.36,20.8,108.96,2.14,7.98,4.39,15.79,6.73,23.39m-5.74,19.28c-1.78-5.29-3.5-10.6-5.14-15.93-2.48-8.04-4.76-15.97-6.86-23.79-9.7-36.14-16.6-73.2-21.11-110.56-4.83-40.05-6.92-80.55-6.81-120.73.05-17.92.4-35.94,1.33-53.78.94-18.01,2.48-35.99,4.91-53.73l12.36-90.3c.97-7.08,4.35-13.27,9.27-17.77,4.93-4.5,11.38-7.32,18.51-7.66,7.15-.34,13.84,1.85,19.16,5.86,5.32,4.02,9.27,9.86,10.9,16.83l20.84,88.73c1.84,7.83,4.27,15.45,7.24,22.8,3.05,7.55,6.68,14.86,10.82,21.9,15.86,26.95,39.35,50.25,65.66,70.5,26.5,20.39,55.92,37.68,83.35,52.5,25.94,14.01,52.76,27.07,79.57,40.13,13.73,6.68,27.44,13.36,43.27,21.31,18.47,9.27,37.42,18.98,55.5,29.68,18.33,10.84,36,22.79,51.82,36.52,12.64,10.97,23.51,23.34,32.7,36.83,9.52,13.98,17.25,29.21,23.3,45.38l1.92,5.3h373.07c39.15,0,74.72,15.99,100.49,41.76,25.77,25.77,41.76,61.34,41.76,100.49v1091.68c0,39.15-15.99,74.72-41.76,100.49-25.77,25.77-61.34,41.76-100.49,41.76H883.84c-39.15,0-74.72-15.99-100.49-41.76-25.77-25.77-41.77-61.34-41.77-100.49v-1091.68c0-39.15,15.99-74.72,41.77-100.49,25.77-25.77,61.34-41.76,100.49-41.76h322.26Z"/>
  <path class="cls-1" d="m1701.03,1307.46h360.23c53.77,0,80.67,28.98,80.67,86.93v118.64c-9.98-18.38-21.98-35-36.16-49.53v-67.84c0-37.43-17.04-56.21-51-56.21h-355.44c.96-10.58,1.56-21.27,1.7-31.99"/>
  <path class="cls-1" d="m1285.66,1307.46h-369.35c-53.77,0-80.67,28.98-80.67,86.93v115.73c4.22-6.67,8.76-13.22,13.63-19.61,7.1-9.32,14.62-17.89,22.53-25.74v-69.11c0-37.43,17.04-56.21,51-56.21h386.3c-8.23-10.14-16.05-20.81-23.43-31.99"/>
  <path class="cls-1" d="m1309.1,2467.51h-36.16v-33.38c-24.92,25.04-58.88,37.55-101.88,37.55-81.83,0-122.74-31.99-122.74-95.97,0-32.92,11.59-57.72,34.66-74.41,20.4-14.84,47.63-22.25,81.82-22.25h108.13v-37.32c0-54.36-31.41-81.6-94.23-81.6-42.07,0-72.79,13.91-92.26,41.72l-25.62-22.25c24.57-34.31,63.98-51.46,118.22-51.46,86.69,0,130.04,36.63,130.04,109.88v229.48Zm-36.16-117.52v-43.12h-103.5c-56.68,0-84.96,22.49-84.96,67.46s28.98,65.37,86.93,65.37c37.78,0,65.37-8.58,82.87-25.73,12.4-12.06,18.66-33.38,18.66-63.98Zm347.38-50.07c0,114.51-41.61,171.77-124.83,171.77-42.42,0-75.57-15.76-99.09-47.29v43.12h-36.16v-495.13h29.48c2.21,1.22,4.44,2.41,6.68,3.56v199.5c23.53-31.53,56.68-47.29,99.09-47.29,83.22,0,124.83,57.25,124.83,171.77Zm-36.16,0c0-41.49-5.33-73.14-15.88-94.81-14.72-30.02-40.68-44.97-78-44.97s-63.28,14.95-78,44.97c-10.55,21.67-15.88,53.31-15.88,94.81,0,93.18,31.29,139.78,93.88,139.78s93.88-46.59,93.88-139.78Zm344.43,6.95h-232.27c0,88.55,36.28,132.82,108.83,132.82,34.65,0,65.37-13.45,92.26-40.33l26.31,20.86c-34.31,34.31-74.64,51.46-121,51.46-95.04,0-142.56-57.25-142.56-171.77,0-48.68,9.97-88.08,29.9-118.22,23.18-35.7,57.95-53.55,104.31-53.55s79.74,16.34,102.92,49.14c20.86,29.09,31.29,66.99,31.29,113.7v15.88Zm-35.47-27.81c-1.85-50.65-17.04-85.3-45.78-103.73-15.65-10.08-33.26-15.18-52.62-15.18s-36.39,4.99-52.27,14.84c-16,9.97-27.47,23.3-34.31,40.1-6.95,16.81-10.9,38.13-11.82,63.98h196.8Zm-1058.51-381v482.53c0,57.95,26.9,86.93,80.67,86.93h136.95c-9.38-8.94-17.15-19.56-22.97-31.99h-107.48c-33.96,0-51-18.78-51-56.21v-438.55c-4.65-4.24-9.09-8.66-13.34-13.29h0c-.79-.85-1.56-1.71-2.33-2.57l-.27-.3-.12-.14-.38-.43-.07-.08-.31-.35-.27-.3-.11-.13-.38-.44-.08-.09-.3-.35-.27-.31-.11-.13-.38-.44-.08-.1-.29-.34-.27-.33-.1-.12-.37-.44-.09-.11-.28-.34-.28-.34-.09-.11-.37-.45-.1-.11-.27-.33-.28-.34-.09-.11-.37-.45-.1-.12-.27-.33-.29-.36-.08-.1-.36-.45-.11-.13-.26-.33-.29-.36-.07-.09-.36-.46-.11-.14-.25-.32-.29-.37-.07-.08-.36-.46-.12-.15-.24-.31-.29-.38-.06-.08-.35-.46-.12-.16-.23-.31-.3-.39-.4-.53-.12-.17-.22-.3-.3-.4-.05-.06-.35-.47-.13-.17-.22-.3-.3-.42-.04-.05-.34-.47-.13-.19-.21-.29-.31-.43-.03-.05-.34-.48-.14-.19-.2-.29-.31-.43-.03-.04-.34-.48-.14-.2-.19-.28-.31-.45-.02-.03-.33-.48-.15-.21-.19-.27-.31-.46-.02-.03-.33-.48-.15-.22-.18-.26-.32-.47h-.01s-.33-.5-.33-.5l-.16-.23-.17-.26-.32-.48h0s-.32-.5-.32-.5l-.16-.24-.16-.25-.32-.5Zm1306.29-10.26v492.79c0,57.95-26.9,86.93-80.67,86.93h-136.95c.69-.66,1.38-1.34,2.06-2.02,8.05-6.15,15.8-12.96,23.24-20.4l9.57-9.57h95.58c33.96,0,51-18.78,51-56.21v-441.83c11.08-11.39,20.83-24.05,29.32-37.84h0s1.51-2.5,1.51-2.5l.05-.09.39-.65.06-.1.33-.56.17-.28.49-.84.11-.18.38-.66h0s.38-.66.38-.66l.11-.19.27-.47.22-.38.16-.28.32-.57.05-.1.37-.66.05-.1.31-.57.16-.29.21-.38.26-.48.1-.19.37-.67Z"/>
  <g class="cls-3">
    <rect class="cls-5" x="823.73" y="829.21" width="1328.06" height="1135.76"/>
  </g>
  <path class="cls-6" d="m1782.29,741.34c116.3,5.47,209.35,98.55,214.82,214.86,5.47-116.31,98.52-209.39,214.82-214.86-116.3-5.47-209.35-98.48-214.82-214.79-5.47,116.31-98.52,209.33-214.82,214.79h0Z"/>
</svg>