<?xml version="1.0" encoding="UTF-8"?>
<svg id="Layer_1" data-name="Layer 1" xmlns="http://www.w3.org/2000/svg" viewBox="0 0 2972.91 3043.18">
  <defs>
    <style>
      .cls-1 {
        fill: #1f5a92;
      }

      .cls-2 {
        fill: #fff;
        stroke: #1f5a92;
        stroke-miterlimit: 10;
      }

      .cls-3 {
        fill: #f6c82c;
        fill-rule: evenodd;
      }
    </style>
  </defs>
  <path class="cls-2" d="m2358.42,1089.18h1.06l-10.33-10.48c-24.03-26.85-49.34-52.52-75.83-76.94l-336.41-341.34-422.57-428.77-422.57,428.77-336.41,341.34c-26.49,24.42-51.8,50.1-75.83,76.94l-10.33,10.48h1.06c-171.9,196.88-276.04,454.45-276.04,736.34,0,618.63,501.5,1120.13,1120.13,1120.13s1120.12-501.5,1120.12-1120.13c0-281.9-104.15-539.46-276.04-736.34Z"/>
  <g>
    <path class="cls-1" d="m1922.03,1978.21l-113.31,116.06c-28.48-66.1-94.27-112.49-170.69-112.49h-113.18c-53.2-32.7-114.16-49.93-177.04-49.93-71.99,0-140.18,22.05-198.03,63.91h-251.66v326h296.59l204.82,68.5c11.36,3.8,23.19,5.72,35.17,5.72h338.1c49.59,0,96.22-19.31,131.3-54.39l190.63-190.65c23.08-23.05,35.79-53.72,35.79-86.37s-12.71-63.32-35.78-86.35c-47.62-47.62-125.11-47.62-172.73,0h0Zm121.67,121.65l-190.65,190.67c-21.43,21.43-49.92,33.24-80.23,33.24h-338.11c-4.18,0-8.3-.67-12.27-2l-215.97-72.22h-236.13v-181.57h203.92l9.79-7.65c47.14-36.81,103.77-56.26,163.76-56.26,52.4,0,103.1,15.2,146.61,43.95l9.05,5.98h134.55c49.99,0,92.53,32.47,107.65,77.43h-325.99v72.21h383.19l170.34-174.49c19.48-19.33,51.05-19.29,70.49.15,9.42,9.41,14.61,21.94,14.61,35.28,0,13.34-5.18,25.87-14.63,35.29h0Z"/>
    <path class="cls-1" d="m2020.38,1409.89c20.51-25.93,32.81-58.65,32.81-94.2,0-83.88-68.24-152.13-152.13-152.13s-152.13,68.24-152.13,152.13c0,35.55,12.29,68.27,32.81,94.2-29.52,12.54-55.03,32.73-74.05,58.05-19.02-25.32-44.53-45.51-74.04-58.05,20.51-25.93,32.81-58.65,32.81-94.2,0-83.88-68.24-152.13-152.13-152.13s-152.13,68.24-152.13,152.13c0,35.55,12.3,68.27,32.81,94.2-29.51,12.54-55.02,32.72-74.04,58.05-19.02-25.33-44.54-45.51-74.05-58.05,20.52-25.93,32.81-58.65,32.81-94.2,0-83.88-68.24-152.13-152.13-152.13s-152.13,68.24-152.13,152.13c0,35.55,12.29,68.27,32.81,94.2-64.68,27.48-110.16,91.65-110.16,166.24v181.97h1232.41v-181.97c0-74.59-45.48-138.76-110.16-166.24Zm-119.32-174.11c44.07,0,79.91,35.85,79.91,79.91s-35.85,79.91-79.91,79.91-79.91-35.85-79.91-79.91,35.85-79.91,79.91-79.91Zm-386.73,0c44.07,0,79.91,35.85,79.91,79.91s-35.85,79.91-79.91,79.91-79.91-35.85-79.91-79.91,35.85-79.91,79.91-79.91Zm-386.73,0c44.07,0,79.91,35.85,79.91,79.91s-35.85,79.91-79.91,79.91-79.91-35.85-79.91-79.91,35.85-79.91,79.91-79.91Zm157.26,450.12h-314.53v-109.76c0-59.73,48.59-108.32,108.32-108.32h97.89c59.73,0,108.32,48.59,108.32,108.32v109.76Zm386.72,0h-314.51v-109.76c0-59.73,48.59-108.32,108.32-108.32h97.87c59.73,0,108.32,48.59,108.32,108.32v109.76Zm386.74,0h-314.53v-109.76c0-59.73,48.59-108.32,108.32-108.32h97.89c59.73,0,108.32,48.59,108.32,108.32v109.76Z"/>
  </g>
  <path class="cls-3" d="m1774.45,741.36c116.3,5.47,209.35,98.55,214.82,214.86,5.47-116.31,98.52-209.39,214.82-214.86-116.3-5.47-209.35-98.48-214.82-214.79-5.47,116.31-98.52,209.33-214.82,214.79h0Z"/>
</svg>