<?xml version="1.0" encoding="UTF-8"?>
<svg id="Layer_1" data-name="Layer 1" xmlns="http://www.w3.org/2000/svg" viewBox="0 0 2972.91 3043.18">
  <defs>
    <style>
      .cls-1 {
        fill: #1f5a92;
      }

      .cls-2 {
        fill: #fff;
        stroke: #1f5a92;
        stroke-miterlimit: 10;
      }

      .cls-3 {
        fill: #f6c82c;
        fill-rule: evenodd;
      }
    </style>
  </defs>
  <path class="cls-2" d="m2331.2,1089.18h1.06l-10.33-10.48c-24.03-26.85-49.34-52.52-75.83-76.94l-336.41-341.34-422.57-428.77-422.57,428.77-336.41,341.34c-26.49,24.42-51.8,50.1-75.83,76.94l-10.33,10.48h1.06c-171.9,196.88-276.04,454.45-276.04,736.34,0,618.63,501.5,1120.13,1120.13,1120.13s1120.12-501.5,1120.12-1120.13c0-281.9-104.15-539.46-276.04-736.34Z"/>
  <g>
    <path class="cls-1" d="m1487.11,2191.82c-205.96,0-373.04-165.42-373.04-369.36s167.08-369.36,373.04-369.36,373.06,165.42,373.06,369.36-167.08,369.36-373.06,369.36Zm0-679.82c-173.92,0-315.81,140.5-315.81,312.72s141.9,312.71,315.81,312.71,315.83-140.49,315.83-312.71-141.9-312.72-315.83-312.72Z"/>
    <path class="cls-1" d="m1601.54,2502.27h-228.84c-13.74,0-25.18-9.06-27.46-22.66l-27.46-145.03c-25.18-9.06-52.64-18.14-75.53-31.72l-121.29,83.84c-11.44,6.8-27.46,6.8-36.63-2.27l-162.5-160.88c-9.14-9.07-11.44-24.93-2.28-36.26l84.67-120.11c-11.44-24.92-22.88-49.85-32.02-74.78l-146.48-27.2c-13.74-2.26-22.88-13.59-22.88-27.19v-226.6c0-13.6,9.14-24.93,22.88-27.2l146.48-27.19c9.14-24.93,18.3-52.13,32.02-74.79l-84.67-120.1c-6.86-11.33-6.86-27.2,2.28-36.26l162.5-160.89c9.16-9.06,25.19-11.33,36.63-2.27l121.29,83.85c25.16-11.33,50.34-22.66,75.53-31.72l27.46-145.03c2.28-13.6,13.72-22.66,27.46-22.66h228.84c13.74,0,25.18,9.06,27.46,22.66l27.46,145.03c25.18,9.06,52.64,18.12,75.53,31.72l121.29-83.85c11.44-6.79,27.46-6.79,36.62,2.27l162.5,160.89c9.14,9.06,11.44,24.93,2.28,36.26l-84.67,120.1c11.44,24.93,22.88,49.86,32.02,74.79l146.48,27.19c13.74,2.27,22.88,13.6,22.88,27.2v226.6c0,13.6-9.14,24.93-22.88,27.19l-146.48,27.2c-9.14,24.93-18.3,52.11-32.02,74.78l84.67,120.11c6.86,11.33,6.86,27.19-2.28,36.26l-162.5,160.88c-9.16,9.07-25.18,11.33-36.62,2.27l-121.29-83.84c-25.16,11.33-50.34,22.66-75.53,31.72l-27.46,145.03c-2.28,13.6-13.72,22.66-27.46,22.66Zm-205.96-56.65h180.8l25.16-138.23c2.3-11.33,9.16-18.12,20.6-22.66,34.32-9.06,66.37-22.66,98.41-40.78,9.16-4.54,20.6-4.54,29.76,2.27l116.71,79.31,128.15-126.9-80.09-115.57c-6.88-9.06-6.88-20.39-2.3-29.45,16.02-29.47,29.74-63.46,41.21-97.45,2.28-11.33,11.44-18.12,22.88-20.39l139.59-24.93v-179.02l-139.59-24.93c-11.44-2.27-18.32-9.06-22.88-20.39-9.16-33.99-22.88-65.71-41.21-97.44-4.58-9.07-4.58-20.4,2.3-29.47l80.09-115.57-128.15-126.89-116.71,81.57c-9.16,6.8-20.6,6.8-29.76,2.27-29.74-15.86-64.09-29.45-98.41-40.78-11.44-2.27-18.3-11.33-20.6-22.66l-22.88-138.23h-180.8l-25.16,138.23c-2.3,11.33-9.16,18.12-20.6,22.66-34.32,9.06-66.37,22.66-98.41,40.78-9.16,4.54-20.6,4.54-29.74-2.27l-116.73-79.31-128.15,126.9,80.11,115.57c6.86,9.06,6.86,20.39,2.28,29.45-16.02,31.73-29.76,63.46-41.21,97.45-2.28,11.33-11.44,18.12-22.88,20.39l-139.59,22.66v179.02l139.59,24.93c11.44,2.27,18.32,9.06,22.88,20.39,9.16,33.99,22.91,65.71,41.21,97.45,4.58,9.06,4.58,20.39-2.28,29.45l-80.11,115.57,128.15,126.9,116.73-79.31c9.14-6.8,20.58-6.8,29.74-2.27,32.04,15.86,64.09,29.45,98.41,40.78,11.44,2.27,18.3,11.33,20.6,22.66l22.88,138.23Z"/>
  </g>
  <path class="cls-3" d="m1775.55,718.34c116.3,5.47,209.35,98.55,214.82,214.86,5.47-116.31,98.52-209.39,214.82-214.86-116.3-5.47-209.35-98.48-214.82-214.79-5.47,116.31-98.52,209.33-214.82,214.79h0Z"/>
  <path class="cls-1" d="m1620.67,1747.18h.17l-1.64-1.66c-3.81-4.26-7.82-8.33-12.02-12.2l-53.34-54.12-67-67.98-67,67.98-53.34,54.12c-4.2,3.87-8.21,7.94-12.02,12.2l-1.64,1.66h.17c-27.25,31.22-43.77,72.05-43.77,116.75,0,98.08,79.51,177.6,177.6,177.6s177.6-79.51,177.6-177.6c0-44.69-16.51-85.53-43.77-116.75Z"/>
</svg>