<?xml version="1.0" encoding="UTF-8"?>
<svg id="Layer_1" data-name="Layer 1" xmlns="http://www.w3.org/2000/svg" viewBox="0 0 2972.91 3043.18">
  <defs>
    <style>
      .cls-1 {
        fill: #1f5a92;
      }

      .cls-2 {
        fill: #fff;
        stroke: #1f5a92;
        stroke-miterlimit: 10;
      }

      .cls-3 {
        fill: #f6c82c;
        fill-rule: evenodd;
      }
    </style>
  </defs>
  <path class="cls-2" d="m2276.78,1089.18h1.06l-10.33-10.48c-24.03-26.85-49.34-52.52-75.83-76.94l-336.41-341.34-422.57-428.77-422.57,428.77-336.41,341.34c-26.49,24.42-51.8,50.1-75.83,76.94l-10.33,10.48h1.06c-171.9,196.88-276.04,454.45-276.04,736.34,0,618.63,501.5,1120.13,1120.13,1120.13s1120.12-501.5,1120.12-1120.13c0-281.9-104.15-539.46-276.04-736.34Z"/>
  <g id="_16-Deadline" data-name=" 16-Deadline">
    <g id="g2395">
      <path id="path2393" class="cls-1" d="m1831.96,1601.75c7.31,4.22,15.26,6.23,23.13,6.23,15.97,0,31.51-8.29,40.09-23.13,4.19-7.25,6.2-15.17,6.23-23,.03-16-8.26-31.61-23.13-40.18-22.11-12.8-50.39-5.24-63.18,16.87-4.19,7.28-6.2,15.2-6.23,23-.03,16.03,8.26,31.61,23.1,40.21"/>
    </g>
    <g id="g2399">
      <path id="path2397" class="cls-1" d="m1417.13,1938.22c-14.74,8.6-22.94,24.11-22.91,40.02,0,7.89,2.04,15.91,6.32,23.25,8.6,14.71,24.08,22.91,39.96,22.91,7.92,0,15.97-2.04,23.28-6.32,14.74-8.6,22.94-24.08,22.94-40.02,0-7.89-2.04-15.91-6.32-23.22-12.89-22.08-41.2-29.51-63.27-16.62"/>
    </g>
    <g id="g2403">
      <path id="path2401" class="cls-1" d="m1549.87,1608.84c7.96,0,16-2.04,23.34-6.35,14.71-8.63,22.91-24.14,22.88-40.06-.03-7.89-2.07-15.91-6.35-23.25-12.92-22.02-41.26-29.42-63.31-16.5-14.71,8.6-22.91,24.11-22.88,40.02.03,7.92,2.07,15.94,6.35,23.25,8.6,14.71,24.08,22.88,39.96,22.88"/>
    </g>
    <g id="g2407">
      <path id="path2405" class="cls-1" d="m1399.34,1872.7c25.44-.12,46.01-20.75,46.07-46.16v-.28c-.12-25.56-20.91-46.19-46.44-46.07-25.47.12-46.01,20.75-46.07,46.16v.28c.09,25.5,20.78,46.07,46.25,46.07h.19Z"/>
    </g>
    <g id="g2411">
      <path id="path2409" class="cls-1" d="m1703.22,1567.3c25.53,0,46.25-20.72,46.25-46.25s-20.72-46.25-46.25-46.25-46.25,20.72-46.25,46.25,20.69,46.25,46.25,46.25"/>
    </g>
    <g id="g2415">
      <path id="path2413" class="cls-1" d="m1416.17,1714.48c7.25,4.16,15.14,6.14,22.94,6.14,16.03,0,31.64-8.36,40.18-23.28,4.16-7.28,6.14-15.2,6.14-23.03-.03-16-8.39-31.54-23.28-40.09-22.17-12.7-50.45-5.03-63.12,17.14-4.19,7.28-6.14,15.2-6.14,23.03.03,16,8.39,31.58,23.28,40.09"/>
    </g>
    <g id="g2419">
      <path id="path2417" class="cls-1" d="m1575.13,2048.86c-22.17-12.74-50.45-5.09-63.15,17.08-4.19,7.25-6.17,15.17-6.17,23,0,16,8.36,31.58,23.22,40.15v-.03c7.28,4.19,15.2,6.17,23,6.17,16.03,0,31.61-8.33,40.15-23.22,4.19-7.28,6.17-15.2,6.17-23,0-16.03-8.36-31.61-23.22-40.15"/>
    </g>
    <g id="g2423">
      <path id="path2421" class="cls-1" d="m1989.96,1936.56c-22.14-12.74-50.42-5.15-63.18,16.99-4.19,7.25-6.17,15.17-6.2,23,0,16,8.29,31.58,23.19,40.15,7.28,4.19,15.2,6.2,23.03,6.2,16,0,31.54-8.29,40.12-23.16,4.19-7.28,6.17-15.2,6.2-23,0-16.03-8.29-31.61-23.16-40.18"/>
    </g>
    <g id="g2427">
      <path id="path2425" class="cls-1" d="m1966.46,1719.11c7.89,0,15.85-2,23.16-6.26,14.77-8.57,23.03-24.02,23.06-39.96,0-7.89-2-15.91-6.26-23.25-12.83-22.11-41.13-29.63-63.21-16.81-14.77,8.57-23.03,24.05-23.06,39.96,0,7.89,2,15.91,6.26,23.25,8.57,14.8,24.11,23.06,40.06,23.06"/>
    </g>
    <g id="g2431">
      <path id="path2429" class="cls-1" d="m2007.23,1778.43c-25.56.03-46.22,20.75-46.19,46.31.03,25.5,20.75,46.19,46.25,46.19h.06c25.56-.06,46.22-20.78,46.19-46.35-.03-25.53-20.78-46.22-46.31-46.16"/>
    </g>
    <g id="g2435">
      <path id="path2433" class="cls-1" d="m1703.96,2082.93c-25.53.06-46.19,20.84-46.1,46.38.06,25.5,20.75,46.13,46.22,46.13h.15c25.53-.06,46.19-20.84,46.13-46.38-.09-25.56-20.84-46.19-46.41-46.13"/>
    </g>
    <g id="g2439">
      <path id="path2437" class="cls-1" d="m1832.61,2048.12c-14.74,8.57-22.97,24.05-23,39.99,0,7.89,2.04,15.91,6.29,23.25,8.6,14.74,24.11,22.97,40.02,22.97,7.89,0,15.91-2,23.22-6.26,14.74-8.6,23-24.08,23-39.99,0-7.92-2.04-15.94-6.29-23.25-12.86-22.08-41.17-29.57-63.24-16.71"/>
    </g>
    <g id="g2443">
      <path id="path2441" class="cls-1" d="m1703.22,2251.5c-235.1,0-426.37-191.27-426.37-426.36s191.27-426.36,426.37-426.36,426.36,191.27,426.36,426.36-191.27,426.36-426.36,426.36m355.02-804.39l24.79-24.79,39.94,39.94c9.03,9.03,20.87,13.55,32.7,13.55s23.68-4.51,32.7-13.55c18.06-18.06,18.06-47.35,0-65.41l-72.57-72.57s-.04-.05-.07-.08c-.02-.02-.05-.05-.08-.07l-75.66-75.66c-18.06-18.06-47.35-18.06-65.41,0-18.06,18.06-18.06,47.35,0,65.41l43.03,43.03-32.69,32.69c-81.18-52.69-177.92-83.33-281.7-83.33s-200.52,30.64-281.7,83.33l-32.69-32.7,43.03-43.03c18.06-18.06,18.06-47.35,0-65.41-18.06-18.06-47.35-18.06-65.41,0l-75.65,75.65s-.06.05-.09.08-.05.06-.08.09l-72.56,72.56c-18.06,18.06-18.06,47.35,0,65.41,9.03,9.03,20.87,13.55,32.7,13.55s23.68-4.51,32.7-13.55l39.94-39.94,24.79,24.79c-100.79,94.71-163.85,229.14-163.85,378.03,0,286.1,232.76,518.87,518.87,518.87s518.87-232.76,518.87-518.87c0-148.9-63.06-283.32-163.85-378.03"/>
    </g>
    <g id="g2447">
      <path id="path2445" class="cls-1" d="m1716.76,1909.98l104.29-104.29c18.07-18.06,18.07-47.35,0-65.41-18.06-18.07-47.35-18.07-65.41,0l-71.59,71.58-33.26-33.26c-18.06-18.06-47.35-18.06-65.41,0-18.06,18.07-18.06,47.35,0,65.41l65.96,65.95c9.03,9.03,20.87,13.55,32.7,13.55s23.67-4.51,32.7-13.55"/>
    </g>
    <g id="g2451">
      <path id="path2449" class="cls-1" d="m1071.87,1421.82h-129.6c-25.54,0-46.25,20.71-46.25,46.25s20.71,46.25,46.25,46.25h129.6c25.54,0,46.25-20.71,46.25-46.25s-20.71-46.25-46.25-46.25"/>
    </g>
    <g id="g2455">
      <path id="path2453" class="cls-1" d="m1071.87,1600.33h-177.88c-25.54,0-46.25,20.71-46.25,46.25s20.71,46.25,46.25,46.25h177.88c25.54,0,46.25-20.71,46.25-46.25s-20.71-46.25-46.25-46.25"/>
    </g>
    <g id="g2459">
      <path id="path2457" class="cls-1" d="m1071.87,1778.87h-255.98c-25.54,0-46.25,20.71-46.25,46.25s20.71,46.25,46.25,46.25h255.98c25.54,0,46.25-20.71,46.25-46.25s-20.71-46.25-46.25-46.25"/>
    </g>
    <g id="g2463">
      <path id="path2461" class="cls-1" d="m1071.87,1957.37h-319.71c-25.54,0-46.25,20.71-46.25,46.25s20.71,46.25,46.25,46.25h319.71c25.54,0,46.25-20.71,46.25-46.25s-20.71-46.25-46.25-46.25"/>
    </g>
    <g id="g2467">
      <path id="path2465" class="cls-1" d="m1071.87,2135.91h-382.3c-25.54,0-46.25,20.71-46.25,46.25s20.71,46.25,46.25,46.25h382.3c25.54,0,46.25-20.71,46.25-46.25s-20.71-46.25-46.25-46.25"/>
    </g>
  </g>
  <path class="cls-3" d="m1746.38,741.34c116.3,5.47,209.35,98.55,214.82,214.86,5.47-116.31,98.52-209.39,214.82-214.86-116.3-5.47-209.35-98.48-214.82-214.79-5.47,116.31-98.52,209.33-214.82,214.79h0Z"/>
</svg>