<?xml version="1.0" encoding="UTF-8"?>
<svg id="Layer_1" data-name="Layer 1" xmlns="http://www.w3.org/2000/svg" viewBox="0 0 2972.91 3043.18">
  <defs>
    <style>
      .cls-1 {
        fill: #f6c82c;
      }

      .cls-2 {
        fill: #fff;
      }

      .cls-3 {
        fill: #1f5a92;
      }
    </style>
  </defs>
  <circle class="cls-3" cx="1487" cy="1522" r="1184"/>
  <path class="cls-2" d="m1612.91,692.09l-959.23,959.23c-8.48,8.48-8.48,22.21,0,30.69l65.71,65.71c5.14,5.14,10.48,9.94,16,14.43.93,1.62,1.74,3.31,3.13,4.7,3.04,3.04,6.81,4.6,10.7,5.46,80.99,55.36,192.67,47.26,264.52-24.59l220.07-220.07,111.65,19.08,372.73,419.02c50.75,50.75,133.34,50.74,184.08,0,50.75-50.75,50.74-133.32-.95-184.94l-418.01-371.82-19.09-111.75,245.08-245.08c71.85-71.85,79.96-183.53,24.59-264.52-.86-3.9-2.42-7.67-5.46-10.71-1.39-1.39-3.08-2.19-4.7-3.12-4.49-5.52-9.28-10.87-14.42-16l-65.71-65.71c-8.48-8.48-22.21-8.48-30.69,0Zm-913.19,974.57l928.53-928.53,50.36,50.36c1.27,1.27,2.36,2.66,3.58,3.97l-928.15,928.15c-1.31-1.23-2.69-2.32-3.97-3.59l-50.36-50.36Zm978.88-645.21l-253.13,253.13c-4.83,4.83-7.02,11.66-6.08,18.41.12.75.26,1.48.43,2.2l21.25,124.37c-.02.28,0,.57,0,.84.2,5.98,2.81,11.62,7.29,15.59l423.2,376.38c33.83,33.83,33.83,88.86.02,122.68-33.83,33.83-88.86,33.82-121.82.93l-377.67-424.61c-4.33-4.87-10.5-7.26-16.77-7l-125.26-21.42c-6.94-1.18-14.03,1.08-19,6.06l-228.01,228.01c-52.22,52.22-131.08,61.98-193.27,29.27l918.1-918.1c32.71,62.18,22.96,141.04-29.27,193.27Z"/>
  <path class="cls-1" d="m1864.04,1344.2c71.59,3.36,128.83,60.6,132.16,132.19,3.33-71.59,60.57-128.83,132.16-132.19-71.59-3.33-128.83-60.62-132.16-132.19-3.33,71.57-60.58,128.86-132.16,132.19h0Z"/>
</svg>