<?xml version="1.0" encoding="UTF-8"?>
<svg id="Layer_1" data-name="Layer 1" xmlns="http://www.w3.org/2000/svg" viewBox="0 0 2972.91 3043.18">
  <defs>
    <style>
      .cls-1 {
        fill: #f6c82c;
      }

      .cls-2 {
        fill: #fff;
      }

      .cls-3 {
        fill: #1f5a92;
      }
    </style>
  </defs>
  <circle class="cls-3" cx="1451.99" cy="1499.1" r="1184"/>
  <path class="cls-2" d="m1787.53,1400.83h-1022.06l43-98.53h1020.27l-41.2,98.53Zm-84.2,197.07h-937.86l43-98.53h937.86l-43,98.53Zm196.17,309.93c-103.32,88.99-231.11,133.47-383.39,133.47-167.21,0-307.55-56.73-421.01-170.19-113.47-113.45-170.19-253.79-170.19-421.01s56.73-307.54,170.19-421.01c113.45-113.45,253.8-170.19,421.01-170.19s309.33,58.53,426.38,175.57l-43,99.43c-109.28-117.64-237.08-176.46-383.39-176.46-137.36,0-253.81,47.78-349.35,143.32-95.55,95.55-143.32,212-143.32,349.35s47.77,253.81,143.32,349.35c95.54,95.55,211.99,143.32,349.35,143.32,149.28,0,277.09-60.02,383.39-180.05v145.11Z"/>
  <path class="cls-1" d="m792.38,859.2c71.59,3.36,128.83,60.6,132.16,132.19,3.33-71.59,60.57-128.83,132.16-132.19-71.59-3.33-128.83-60.62-132.16-132.19-3.33,71.57-60.58,128.86-132.16,132.19h0Z"/>
</svg>