<?xml version="1.0" encoding="UTF-8"?>
<svg id="Layer_1" data-name="Layer 1" xmlns="http://www.w3.org/2000/svg" viewBox="0 0 2972.91 3043.18">
  <defs>
    <style>
      .cls-1 {
        fill: #f6c82c;
      }

      .cls-2 {
        fill: #1f5a92;
      }

      .cls-3 {
        fill: #fff;
        stroke: #fff;
        stroke-miterlimit: 10;
        stroke-width: 13.97px;
      }
    </style>
  </defs>
  <circle class="cls-2" cx="1528.94" cy="1509.43" r="1184"/>
  <path class="cls-3" d="m2213.86,1506.27c33.56-66.39,19.66-145.2-34.58-196.11l-78.73-73.9c-18.16-17.04-29.26-36.27-34.94-60.53l-24.63-105.12c-16.96-72.43-78.27-123.87-152.55-128.01l-107.8-6c-24.87-1.38-45.74-8.98-65.68-23.9l-86.44-64.7c-59.55-44.58-139.58-44.58-199.14,0l-86.44,64.7c-19.94,14.93-40.81,22.52-65.68,23.9l-107.8,6c-74.28,4.13-135.58,55.57-152.55,128.01l-24.63,105.13c-5.68,24.25-16.78,43.48-34.94,60.53l-78.73,73.89c-54.24,50.91-68.14,129.72-34.58,196.11l48.71,96.36c11.24,22.23,15.09,44.1,12.14,68.83l-12.82,107.21c-8.83,73.86,31.19,143.17,99.57,172.46l99.25,42.51c22.89,9.8,39.9,24.08,53.54,44.92l59.1,90.37c40.71,62.26,115.91,89.63,187.13,68.11l103.35-31.23c23.84-7.21,46.05-7.2,69.89,0l103.35,31.23c16.2,4.9,32.61,7.26,48.77,7.26,54.87,0,106.91-27.28,138.36-75.37l59.1-90.37c13.63-20.84,30.64-35.12,53.54-44.92l99.25-42.51c68.38-29.29,108.4-98.59,99.57-172.46l-12.82-107.21c-2.96-24.73.9-46.6,12.14-68.83l48.72-96.36Zm-89.2,75.9c-15.25,30.16-20.71,61.13-16.69,94.68l12.82,107.21c6.52,54.54-21.89,103.75-72.38,125.37l-99.25,42.51c-31.06,13.3-55.15,33.52-73.65,61.79l-59.1,90.37c-30.06,45.97-83.46,65.4-136.04,49.51l-103.35-31.23c-16.17-4.89-32.12-7.33-48.07-7.33s-31.9,2.44-48.07,7.33l-103.35,31.23c-52.57,15.89-105.97-3.54-136.04-49.51l-59.1-90.37c-18.5-28.28-42.59-48.49-73.65-61.79l-99.25-42.51c-50.49-21.62-78.9-70.84-72.38-125.37l12.82-107.21c4.01-33.55-1.45-64.52-16.69-94.68l-48.71-96.36c-24.78-49.02-14.91-104.98,25.14-142.57l78.73-73.89c24.64-23.12,40.36-50.36,48.06-83.26l24.63-105.13c12.53-53.48,56.06-90.01,110.9-93.05l107.8-6c33.74-1.88,63.29-12.63,90.34-32.88l86.44-64.7c43.97-32.91,100.8-32.92,144.77,0l86.44,64.7c27.05,20.25,56.61,31,90.34,32.88l107.8,6c54.84,3.05,98.37,39.58,110.9,93.06l24.63,105.12c7.71,32.9,23.43,60.14,48.07,83.26l78.73,73.89c40.05,37.59,49.91,93.55,25.14,142.57l-48.71,96.36Zm-595.72-536.48c-255.69,0-463.71,208.02-463.71,463.71s208.02,463.71,463.71,463.71,463.71-208.02,463.71-463.71-208.02-463.71-463.71-463.71Zm0,882.06c-230.68,0-418.35-187.67-418.35-418.35s187.67-418.35,418.35-418.35,418.35,187.67,418.35,418.35-187.67,418.35-418.35,418.35Zm193.07-628.53h-.34c-22.67.09-43.92,9-59.85,25.09l-188.1,189.97-77.68-77.69c-16.04-16.04-37.38-24.88-60.07-24.88s-44.03,8.83-60.07,24.88c-33.12,33.12-33.12,87.02,0,120.14l137.97,137.97c16.56,16.56,38.31,24.84,60.07,24.84s43.51-8.28,60.07-24.84c52.31-52.31,105.09-105.85,156.13-157.62,30.67-31.11,61.35-62.22,92.09-93.26,32.9-33.2,32.72-86.99-.39-119.91-16.02-15.93-37.26-24.69-59.84-24.69h0Zm28,112.67c-30.77,31.06-61.48,62.2-92.18,93.34-50.99,51.72-103.71,105.19-155.9,157.39-15.44,15.44-40.55,15.44-55.98,0l-137.97-137.97c-15.43-15.43-15.43-40.55,0-55.98,7.47-7.47,17.41-11.59,27.99-11.59s20.52,4.12,27.99,11.59l93.8,93.8c4.26,4.25,10.02,6.64,16.04,6.64h.06c6.04-.01,11.82-2.44,16.06-6.72l204.14-206.17c7.39-7.47,17.26-11.6,27.79-11.64h.16c10.52,0,20.4,4.08,27.86,11.49,15.4,15.32,15.47,40.36.15,55.82h0Z"/>
  <path class="cls-1" d="m977.95,814.2c71.59,3.36,128.83,60.6,132.16,132.19,3.33-71.59,60.57-128.83,132.16-132.19-71.59-3.33-128.83-60.62-132.16-132.19-3.33,71.57-60.58,128.86-132.16,132.19h0Z"/>
</svg>