<?xml version="1.0" encoding="UTF-8"?>
<svg id="Layer_1" data-name="Layer 1" xmlns="http://www.w3.org/2000/svg" viewBox="0 0 2972.91 3043.18">
  <defs>
    <style>
      .cls-1 {
        fill: #f6c82c;
        fill-rule: evenodd;
      }
    </style>
  </defs>
  <path class="cls-1" d="m168,1451.3c674.29,31.66,1213.91,571.3,1245.52,1245.57,31.7-674.27,571.32-1213.91,1245.61-1245.57-674.29-31.75-1213.91-571.3-1245.61-1245.53-31.61,674.23-571.23,1213.78-1245.52,1245.53h0Z"/>
  <path class="cls-1" d="m1996.34,2250.45c218.63,10.28,393.55,185.27,403.83,403.91,10.28-218.65,185.2-393.64,403.83-403.91-218.63-10.28-393.55-185.14-403.83-403.79-10.28,218.65-185.2,393.51-403.83,403.79h0Z"/>
  <path class="cls-1" d="m456.08,2059.16c107.8,5.05,194.01,91.26,199.02,199.06,5.01-107.8,91.22-194.01,199.02-199.06-107.8-5.01-194.01-91.28-199.02-199.06-5.01,107.78-91.22,194.05-199.02,199.06h0Z"/>
</svg>