<?xml version="1.0" encoding="UTF-8"?>
<svg id="Layer_1" data-name="Layer 1" xmlns="http://www.w3.org/2000/svg" viewBox="0 0 2972.91 3043.18">
  <defs>
    <style>
      .cls-1 {
        fill: #f6c82c;
      }

      .cls-2 {
        fill: #fff;
      }

      .cls-3 {
        fill: #1f5a92;
      }
    </style>
  </defs>
  <circle class="cls-3" cx="1528.91" cy="1522" r="1184"/>
  <path class="cls-2" d="m653.56,1508.88c447.76,21.02,806.1,379.37,827.09,827.12,21.05-447.75,379.39-806.1,827.15-827.12-447.76-21.08-806.1-379.37-827.15-827.09-20.99,447.72-379.33,806.01-827.09,827.09h0Z"/>
  <path class="cls-2" d="m1867.67,2039.56c145.18,6.83,261.34,123.03,268.16,268.22,6.83-145.19,122.98-261.39,268.17-268.22-145.18-6.83-261.34-122.94-268.17-268.14-6.83,145.19-122.98,261.31-268.16,268.14h0Z"/>
  <path class="cls-1" d="m844.86,1912.53c71.59,3.36,128.83,60.6,132.16,132.19,3.33-71.59,60.57-128.83,132.16-132.19-71.59-3.33-128.83-60.62-132.16-132.19-3.33,71.57-60.58,128.86-132.16,132.19h0Z"/>
</svg>