<?xml version="1.0" encoding="UTF-8" standalone="no"?>
<svg
   id="Calque_1"
   data-name="Calque 1"
   viewBox="0 0 114 100"
   version="1.1"
   sodipodi:docname="Logo SVG.svg"
   inkscape:version="1.2.2 (b0a84865, 2022-12-01)"
   xmlns:inkscape="http://www.inkscape.org/namespaces/inkscape"
   xmlns:sodipodi="http://sodipodi.sourceforge.net/DTD/sodipodi-0.dtd"
   xmlns="http://www.w3.org/2000/svg"
   xmlns:svg="http://www.w3.org/2000/svg">
  <sodipodi:namedview
     id="namedview5713"
     pagecolor="#ffffff"
     bordercolor="#000000"
     borderopacity="0.25"
     inkscape:showpageshadow="2"
     inkscape:pageopacity="0.0"
     inkscape:pagecheckerboard="0"
     inkscape:deskcolor="#d1d1d1"
     showgrid="false"
     inkscape:zoom="2.49"
     inkscape:cx="-152.20884"
     inkscape:cy="87.951807"
     inkscape:window-width="2466"
     inkscape:window-height="1266"
     inkscape:window-x="388"
     inkscape:window-y="30"
     inkscape:window-maximized="0"
     inkscape:current-layer="Calque_1" />
  <defs
     id="defs5656">
    <style
       id="style5654">
      .cls-1 {
        fill: #d4121e;
      }
    </style>
  </defs>
  <path
     class="cls-1"
     d="m98.09,18.65c-.09.09-.23.16-.42.16s-.32-.07-.41-.16c-.15-.15-.22-.38-.22-.65s.07-.51.22-.65c.09-.09.23-.16.41-.16s.33.07.42.16c.15.15.22.38.22.65s-.07.5-.22.65Zm-.56-1.1c-.11.11-.13.34-.13.45,0,.12.02.34.13.45.04.04.08.06.14.06s.1-.02.14-.06c.11-.11.13-.33.13-.45,0-.11-.02-.33-.13-.45-.04-.04-.08-.06-.14-.06s-.1.02-.14.06Zm1.24-.03h-.22v-.3h.58v1.55h-.36v-1.25Zm-.68,3.92c-.09.09-.23.16-.42.16s-.32-.07-.41-.16c-.15-.15-.22-.38-.22-.65s.07-.51.22-.65c.09-.09.23-.16.41-.16s.33.07.42.16c.15.15.22.38.22.65s-.07.5-.22.65Zm-.56-1.1c-.11.11-.13.34-.13.45,0,.12.02.34.13.45.04.04.08.06.14.06s.1-.02.14-.06c.11-.11.13-.33.13-.45,0-.11-.02-.33-.13-.45-.04-.04-.08-.06-.14-.06s-.1.02-.14.06Zm1.24-.03h-.22v-.3h.58v1.55h-.36v-1.25Zm-.83,3.92c-.09.09-.23.16-.42.16s-.32-.07-.41-.16c-.15-.15-.22-.38-.22-.65s.07-.51.22-.65c.09-.09.23-.16.41-.16s.33.07.42.16c.15.15.22.38.22.65s-.07.5-.22.65Zm-.56-1.1c-.11.11-.13.34-.13.45,0,.12.02.34.13.45.04.04.08.06.14.06s.1-.02.14-.06c.11-.11.13-.33.13-.45,0-.11-.02-.33-.13-.45-.04-.04-.08-.06-.14-.06s-.1.02-.14.06Zm1.96,1.1c-.09.09-.23.16-.42.16s-.32-.07-.41-.16c-.15-.15-.22-.38-.22-.65s.07-.51.22-.65c.09-.09.23-.16.41-.16s.33.07.42.16c.15.15.22.38.22.65s-.07.5-.22.65Zm-.56-1.1c-.11.11-.13.34-.13.45,0,.12.02.34.13.45.04.04.08.06.14.06s.1-.02.14-.06c.11-.11.13-.33.13-.45,0-.11-.02-.33-.13-.45-.04-.04-.08-.06-.14-.06s-.1.02-.14.06Zm-.84,3.89c-.09.09-.23.16-.42.16s-.32-.07-.41-.16c-.15-.15-.22-.38-.22-.65s.07-.51.22-.65c.09-.09.23-.16.41-.16s.33.07.42.16c.15.15.22.38.22.65s-.07.5-.22.65Zm-.56-1.1c-.11.11-.13.34-.13.45,0,.12.02.34.13.45.04.04.08.06.14.06s.1-.02.14-.06c.11-.11.13-.33.13-.45,0-.11-.02-.33-.13-.45-.04-.04-.08-.06-.14-.06s-.1.02-.14.06Zm1.96,1.1c-.09.09-.23.16-.42.16s-.32-.07-.41-.16c-.15-.15-.22-.38-.22-.65s.07-.51.22-.65c.09-.09.23-.16.41-.16s.33.07.42.16c.15.15.22.38.22.65s-.07.5-.22.65Zm-.56-1.1c-.11.11-.13.34-.13.45,0,.12.02.34.13.45.04.04.08.06.14.06s.1-.02.14-.06c.11-.11.13-.33.13-.45,0-.11-.02-.33-.13-.45-.04-.04-.08-.06-.14-.06s-.1.02-.14.06Zm-.68,3.89c-.09.09-.23.16-.42.16s-.32-.07-.41-.16c-.15-.15-.22-.38-.22-.65s.07-.51.22-.65c.09-.09.23-.16.41-.16s.33.07.42.16c.15.15.22.38.22.65s-.07.5-.22.65Zm-.56-1.1c-.11.11-.13.34-.13.45,0,.12.02.34.13.45.04.04.08.06.14.06s.1-.02.14-.06c.11-.11.13-.33.13-.45,0-.11-.02-.33-.13-.45-.04-.04-.08-.06-.14-.06s-.1.02-.14.06Zm1.24-.03h-.22v-.3h.58v1.55h-.36v-1.25Zm-.83,3.92c-.09.09-.23.16-.42.16s-.32-.07-.41-.16c-.15-.15-.22-.38-.22-.65s.07-.51.22-.65c.09-.09.23-.16.41-.16s.33.07.42.16c.15.15.22.38.22.65s-.07.5-.22.65Zm-.56-1.1c-.11.11-.13.34-.13.45,0,.12.02.34.13.45.04.04.08.06.14.06s.1-.02.14-.06c.11-.11.13-.33.13-.45,0-.11-.02-.33-.13-.45-.04-.04-.08-.06-.14-.06s-.1.02-.14.06Zm1.96,1.1c-.09.09-.23.16-.42.16s-.32-.07-.41-.16c-.15-.15-.22-.38-.22-.65s.07-.51.22-.65c.09-.09.23-.16.41-.16s.33.07.42.16c.15.15.22.38.22.65s-.07.5-.22.65Zm-.56-1.1c-.11.11-.13.34-.13.45,0,.12.02.34.13.45.04.04.08.06.14.06s.1-.02.14-.06c.11-.11.13-.33.13-.45,0-.11-.02-.33-.13-.45-.04-.04-.08-.06-.14-.06s-.1.02-.14.06Zm-.84,3.89c-.09.09-.23.16-.42.16s-.32-.07-.41-.16c-.15-.15-.22-.38-.22-.65s.07-.51.22-.65c.09-.09.23-.16.41-.16s.33.07.42.16c.15.15.22.38.22.65s-.07.5-.22.65Zm-.56-1.1c-.11.11-.13.34-.13.45,0,.12.02.34.13.45.04.04.08.06.14.06s.1-.02.14-.06c.11-.11.13-.33.13-.45,0-.11-.02-.33-.13-.45-.04-.04-.08-.06-.14-.06s-.1.02-.14.06Zm1.96,1.1c-.09.09-.23.16-.42.16s-.32-.07-.41-.16c-.15-.15-.22-.38-.22-.65s.07-.51.22-.65c.09-.09.23-.16.41-.16s.33.07.42.16c.15.15.22.38.22.65s-.07.5-.22.65Zm-.56-1.1c-.11.11-.13.34-.13.45,0,.12.02.34.13.45.04.04.08.06.14.06s.1-.02.14-.06c.11-.11.13-.33.13-.45,0-.11-.02-.33-.13-.45-.04-.04-.08-.06-.14-.06s-.1.02-.14.06Zm-.77,3.89c-.09.09-.23.16-.42.16s-.32-.07-.41-.16c-.15-.15-.22-.38-.22-.65s.07-.51.22-.65c.09-.09.23-.16.41-.16s.33.07.42.16c.15.15.22.38.22.65s-.07.5-.22.65Zm-.56-1.1c-.11.11-.13.34-.13.45,0,.12.02.34.13.45.04.04.08.06.14.06s.1-.02.14-.06c.11-.11.13-.33.13-.45,0-.11-.02-.33-.13-.45-.04-.04-.08-.06-.14-.06s-.1.02-.14.06Zm1.24-.03h-.22v-.3h.58v1.55h-.36v-1.25Z"
     id="path5658" />
  <path
     class="cls-1"
     d="m1.4,62.98c-.09.09-.23.16-.42.16s-.32-.07-.41-.16c-.15-.15-.22-.38-.22-.65s.07-.51.22-.65c.09-.09.23-.16.41-.16s.33.07.42.16c.15.15.22.38.22.65s-.07.5-.22.65Zm-.56-1.1c-.11.11-.13.34-.13.45,0,.12.02.34.13.45.04.04.08.06.14.06s.1-.02.14-.06c.11-.11.13-.33.13-.45,0-.11-.02-.33-.13-.45-.04-.04-.08-.06-.14-.06s-.1.02-.14.06Zm1.24-.03h-.22v-.3h.58v1.55h-.36v-1.25Zm-.68,3.92c-.09.09-.23.16-.42.16s-.32-.07-.41-.16c-.15-.15-.22-.38-.22-.65s.07-.51.22-.65c.09-.09.23-.16.41-.16s.33.07.42.16c.15.15.22.38.22.65s-.07.5-.22.65Zm-.56-1.1c-.11.11-.13.34-.13.45,0,.12.02.34.13.45.04.04.08.06.14.06s.1-.02.14-.06c.11-.11.13-.33.13-.45,0-.11-.02-.33-.13-.45-.04-.04-.08-.06-.14-.06s-.1.02-.14.06Zm1.24-.03h-.22v-.3h.58v1.55h-.36v-1.25Zm-.83,3.92c-.09.09-.23.16-.42.16s-.32-.07-.41-.16c-.15-.15-.22-.38-.22-.65s.07-.51.22-.65c.09-.09.23-.16.41-.16s.33.07.42.16c.15.15.22.38.22.65s-.07.5-.22.65Zm-.56-1.1c-.11.11-.13.34-.13.45,0,.12.02.34.13.45.04.04.08.06.14.06s.1-.02.14-.06c.11-.11.13-.33.13-.45,0-.11-.02-.33-.13-.45-.04-.04-.08-.06-.14-.06s-.1.02-.14.06Zm1.96,1.1c-.09.09-.23.16-.42.16s-.32-.07-.41-.16c-.15-.15-.22-.38-.22-.65s.07-.51.22-.65c.09-.09.23-.16.41-.16s.33.07.42.16c.15.15.22.38.22.65s-.07.5-.22.65Zm-.56-1.1c-.11.11-.13.34-.13.45,0,.12.02.34.13.45.04.04.08.06.14.06s.1-.02.14-.06c.11-.11.13-.33.13-.45,0-.11-.02-.33-.13-.45-.04-.04-.08-.06-.14-.06s-.1.02-.14.06Zm-.84,3.89c-.09.09-.23.16-.42.16s-.32-.07-.41-.16c-.15-.15-.22-.38-.22-.65s.07-.51.22-.65c.09-.09.23-.16.41-.16s.33.07.42.16c.15.15.22.38.22.65s-.07.5-.22.65Zm-.56-1.1c-.11.11-.13.34-.13.45,0,.12.02.34.13.45.04.04.08.06.14.06s.1-.02.14-.06c.11-.11.13-.33.13-.45,0-.11-.02-.33-.13-.45-.04-.04-.08-.06-.14-.06s-.1.02-.14.06Zm1.96,1.1c-.09.09-.23.16-.42.16s-.32-.07-.41-.16c-.15-.15-.22-.38-.22-.65s.07-.51.22-.65c.09-.09.23-.16.41-.16s.33.07.42.16c.15.15.22.38.22.65s-.07.5-.22.65Zm-.56-1.1c-.11.11-.13.34-.13.45,0,.12.02.34.13.45.04.04.08.06.14.06s.1-.02.14-.06c.11-.11.13-.33.13-.45,0-.11-.02-.33-.13-.45-.04-.04-.08-.06-.14-.06s-.1.02-.14.06Zm-.68,3.89c-.09.09-.23.16-.42.16s-.32-.07-.41-.16c-.15-.15-.22-.38-.22-.65s.07-.51.22-.65c.09-.09.23-.16.41-.16s.33.07.42.16c.15.15.22.38.22.65s-.07.5-.22.65Zm-.56-1.1c-.11.11-.13.34-.13.45,0,.12.02.34.13.45.04.04.08.06.14.06s.1-.02.14-.06c.11-.11.13-.33.13-.45,0-.11-.02-.33-.13-.45-.04-.04-.08-.06-.14-.06s-.1.02-.14.06Zm1.24-.03h-.22v-.3h.58v1.55h-.36v-1.25Zm-.83,3.92c-.09.09-.23.16-.42.16s-.32-.07-.41-.16c-.15-.15-.22-.38-.22-.65s.07-.51.22-.65c.09-.09.23-.16.41-.16s.33.07.42.16c.15.15.22.38.22.65s-.07.5-.22.65Zm-.56-1.1c-.11.11-.13.34-.13.45,0,.12.02.34.13.45.04.04.08.06.14.06s.1-.02.14-.06c.11-.11.13-.33.13-.45,0-.11-.02-.33-.13-.45-.04-.04-.08-.06-.14-.06s-.1.02-.14.06Zm1.96,1.1c-.09.09-.23.16-.42.16s-.32-.07-.41-.16c-.15-.15-.22-.38-.22-.65s.07-.51.22-.65c.09-.09.23-.16.41-.16s.33.07.42.16c.15.15.22.38.22.65s-.07.5-.22.65Zm-.56-1.1c-.11.11-.13.34-.13.45,0,.12.02.34.13.45.04.04.08.06.14.06s.1-.02.14-.06c.11-.11.13-.33.13-.45,0-.11-.02-.33-.13-.45-.04-.04-.08-.06-.14-.06s-.1.02-.14.06Zm-.84,3.89c-.09.09-.23.16-.42.16s-.32-.07-.41-.16c-.15-.15-.22-.38-.22-.65s.07-.51.22-.65c.09-.09.23-.16.41-.16s.33.07.42.16c.15.15.22.38.22.65s-.07.5-.22.65Zm-.56-1.1c-.11.11-.13.34-.13.45,0,.12.02.34.13.45.04.04.08.06.14.06s.1-.02.14-.06c.11-.11.13-.33.13-.45,0-.11-.02-.33-.13-.45-.04-.04-.08-.06-.14-.06s-.1.02-.14.06Zm1.96,1.1c-.09.09-.23.16-.42.16s-.32-.07-.41-.16c-.15-.15-.22-.38-.22-.65s.07-.51.22-.65c.09-.09.23-.16.41-.16s.33.07.42.16c.15.15.22.38.22.65s-.07.5-.22.65Zm-.56-1.1c-.11.11-.13.34-.13.45,0,.12.02.34.13.45.04.04.08.06.14.06s.1-.02.14-.06c.11-.11.13-.33.13-.45,0-.11-.02-.33-.13-.45-.04-.04-.08-.06-.14-.06s-.1.02-.14.06Zm-.77,3.89c-.09.09-.23.16-.42.16s-.32-.07-.41-.16c-.15-.15-.22-.38-.22-.65s.07-.51.22-.65c.09-.09.23-.16.41-.16s.33.07.42.16c.15.15.22.38.22.65s-.07.5-.22.65Zm-.56-1.1c-.11.11-.13.34-.13.45,0,.12.02.34.13.45.04.04.08.06.14.06s.1-.02.14-.06c.11-.11.13-.33.13-.45,0-.11-.02-.33-.13-.45-.04-.04-.08-.06-.14-.06s-.1.02-.14.06Zm1.24-.03h-.22v-.3h.58v1.55h-.36v-1.25Z"
     id="path5660" />
  <g
     id="g5668">
    <polygon
       class="cls-1"
       points="96.69 96.65 3.01 96.65 3.01 84.35 0 84.35 0 99.66 99.69 99.66 99.69 89.41 96.69 89.41 96.69 96.65"
       id="polygon5662" />
    <rect
       class="cls-1"
       x="96.69"
       y="40.02"
       width="3.01"
       height="21.36"
       id="rect5664" />
    <polygon
       class="cls-1"
       points="3.01 2.97 96.69 2.97 96.69 15.55 99.69 15.55 99.69 -.03 0 -.03 0 59.87 3.01 59.87 3.01 2.97"
       id="polygon5666" />
  </g>
  <g
     id="g5696">
    <g
       id="g5676">
      <path
         class="cls-1"
         d="m12.22,49.85h6.73c3.15,0,5.08,2.07,5.08,4.84s-1.93,4.84-5.08,4.84h-4.12v4.45h-2.61v-14.13Zm2.61,7.2h3.91c1.85,0,2.68-1.1,2.68-2.36s-.83-2.36-2.68-2.36h-3.91v4.72Z"
         id="path5670" />
      <path
         class="cls-1"
         d="m26.74,49.85h6.73c3.15,0,5.08,2.07,5.08,4.84,0,2.05-1.42,3.67-3.31,4.25l3.53,5.04h-3.28l-2.95-4.45h-3.19v4.45h-2.61v-14.13Zm2.61,7.2h3.91c1.84,0,2.68-1.1,2.68-2.36s-.83-2.36-2.68-2.36h-3.91v4.72Z"
         id="path5672" />
      <path
         class="cls-1"
         d="m48.53,49.55c4.23,0,7.58,3.22,7.58,7.36s-3.35,7.35-7.58,7.35-7.58-3.22-7.58-7.35,3.35-7.36,7.58-7.36Zm0,12.24c2.54,0,4.84-2.14,4.84-4.88s-2.29-4.88-4.84-4.88-4.84,2.14-4.84,4.88,2.29,4.88,4.84,4.88Z"
         id="path5674" />
    </g>
    <g
       id="g5694">
      <path
         class="cls-1"
         d="m20.37,83.02l-.86-2.58h-5.18l-.88,2.58h-2.97l5.3-14.58h2.23l5.32,14.58h-2.97Zm-3.4-10.28l-1.84,5.3h3.62l-1.78-5.3Z"
         id="path5678" />
      <path
         class="cls-1"
         d="m34.31,83.02l-2.85-5.81h-2.05v5.81h-2.84v-14.58h5.71c2.97,0,4.73,2.03,4.73,4.46,0,2.05-1.25,3.32-2.66,3.83l3.26,6.28h-3.3Zm-2.21-12.04h-2.68v3.85h2.68c1.25,0,2.07-.8,2.07-1.92s-.82-1.92-2.07-1.92Z"
         id="path5680" />
      <path
         class="cls-1"
         d="m46.26,83.14c-1.56,0-2.87-.53-3.93-1.6-.63-.63-1.02-1.37-1.19-2.19-.16-.82-.25-2.03-.25-3.62s.08-2.8.25-3.62c.16-.84.55-1.56,1.19-2.19,1.06-1.06,2.37-1.6,3.93-1.6,2.8,0,4.87,1.64,5.36,4.61h-2.89c-.31-1.25-1.09-2.07-2.46-2.07-.78,0-1.39.25-1.82.76-.59.64-.72,1.29-.72,4.11s.12,3.48.72,4.11c.43.51,1.04.76,1.82.76,1.37,0,2.15-.82,2.46-2.07h2.89c-.49,2.97-2.58,4.61-5.36,4.61Z"
         id="path5682" />
      <path
         class="cls-1"
         d="m62.1,83.02v-6.1h-4.93v6.1h-2.84v-14.58h2.84v5.96h4.93v-5.96h2.84v14.58h-2.84Z"
         id="path5684" />
      <path
         class="cls-1"
         d="m69.77,83.02v-14.58h2.85v14.58h-2.85Z"
         id="path5686" />
      <path
         class="cls-1"
         d="m82.75,83.02h-2.13l-4.81-14.58h2.95l2.93,9.5,2.93-9.5h2.97l-4.83,14.58Z"
         id="path5688" />
      <path
         class="cls-1"
         d="m90.77,83.02v-14.58h9.6v2.54h-6.76v3.42h5.75v2.54h-5.75v3.54h6.76v2.54h-9.6Z"
         id="path5690" />
      <path
         class="cls-1"
         d="m108.59,83.14c-2.21,0-3.89-.47-5.32-1.92l1.84-1.84c.92.92,2.17,1.23,3.52,1.23,1.68,0,2.58-.63,2.58-1.8,0-.51-.14-.94-.45-1.23-.29-.27-.61-.41-1.29-.51l-1.76-.25c-1.25-.18-2.17-.57-2.82-1.21-.7-.7-1.04-1.64-1.04-2.87,0-2.6,1.92-4.42,5.08-4.42,2.01,0,3.46.49,4.71,1.7l-1.8,1.78c-.92-.88-2.03-1-2.99-1-1.51,0-2.25.84-2.25,1.84,0,.37.12.76.43,1.04.29.27.76.49,1.35.57l1.72.25c1.33.18,2.17.55,2.78,1.13.78.74,1.13,1.8,1.13,3.09,0,2.82-2.35,4.42-5.41,4.42Z"
         id="path5692" />
    </g>
  </g>
  <g
     id="g5710">
    <path
       class="cls-1"
       d="m16.51,39.81h3.07v.18c0,.82-.24,1.7-.71,2.33-.22.3-1.05,1.32-2.73,1.32-2.18,0-3.81-1.66-3.81-3.8s1.64-3.8,3.84-3.8c.71,0,1.53.18,2.25.73.33.25.64.58.85.87l-.61.55c-.21-.3-.45-.56-.69-.76-.35-.29-.9-.62-1.79-.62-1.78,0-3.01,1.33-3.01,3.04,0,2.01,1.6,3.02,2.99,3.02.98,0,1.83-.5,2.25-1.23.13-.23.28-.58.3-1.05h-2.18v-.77Z"
       id="path5698" />
    <path
       class="cls-1"
       d="m20.87,38.93h.79v.5c.08-.12.42-.61,1.04-.61.24,0,.51.09.71.19l-.37.72c-.18-.12-.34-.15-.46-.15-.32,0-.52.13-.64.29-.13.18-.26.49-.26,1.23v2.41h-.79v-4.58Z"
       id="path5700" />
    <path
       class="cls-1"
       d="m23.59,41.24c0-1.39,1.03-2.41,2.43-2.41s2.43,1.03,2.43,2.41-1.04,2.4-2.43,2.4-2.43-1.01-2.43-2.4Zm.82,0c0,1.12.79,1.7,1.61,1.7s1.61-.58,1.61-1.7-.77-1.71-1.61-1.71-1.61.6-1.61,1.71Z"
       id="path5702" />
    <path
       class="cls-1"
       d="m30.44,41.6c0,.32,0,.69.22.98.12.15.36.35.8.35s.68-.2.8-.35c.22-.29.22-.66.22-.98v-2.67h.79v2.76c0,.56-.06.98-.42,1.38-.41.43-.95.57-1.4.57s-.99-.14-1.4-.57c-.36-.4-.42-.82-.42-1.38v-2.76h.79v2.67Z"
       id="path5704" />
    <path
       class="cls-1"
       d="m35.58,46.04h-.79v-7.11h.79v.64c.54-.67,1.23-.75,1.57-.75,1.43,0,2.23,1.19,2.23,2.43s-.8,2.39-2.19,2.39c-.74,0-1.26-.33-1.6-.77v3.18Zm2.98-4.8c0-1.12-.76-1.72-1.5-1.72s-1.52.61-1.52,1.71c0,.94.6,1.7,1.53,1.7s1.49-.77,1.49-1.69Z"
       id="path5706" />
    <path
       class="cls-1"
       d="m44.64,42.34c-.13.25-.33.53-.56.74-.42.37-.94.56-1.52.56-1.1,0-2.26-.69-2.26-2.39,0-1.37.84-2.43,2.22-2.43.89,0,1.46.44,1.73.84.29.41.45,1.11.43,1.72h-3.56c.01.95.66,1.55,1.46,1.55.37,0,.67-.11.94-.33.21-.18.37-.41.47-.63l.66.36Zm-.78-1.62c-.13-.72-.67-1.19-1.35-1.19s-1.22.51-1.35,1.19h2.69Z"
       id="path5708" />
  </g>
</svg>
