<svg width="266" height="265" viewBox="0 0 266 265" fill="none" xmlns="http://www.w3.org/2000/svg">
<path d="M132.54 3.12207C136.394 26.8255 140.017 45.9145 144.868 61.3652C149.769 76.9745 155.932 88.9041 164.88 98.1455L165.754 99.0312C175.149 108.392 187.384 114.759 203.559 119.792C219.066 124.618 238.228 128.227 262.028 132.066C238.228 135.906 219.065 139.515 203.551 144.341C187.369 149.374 175.121 155.741 165.698 165.102L165.697 165.103C156.303 174.492 149.913 186.698 144.861 202.822C140.017 218.284 136.394 237.382 132.54 261.103C128.686 237.382 125.064 218.284 120.22 202.829C115.168 186.712 108.778 174.52 99.3828 165.158C89.9879 155.769 77.7533 149.389 61.584 144.349C46.0807 139.516 26.9275 135.906 3.14453 132.066C26.9275 128.226 46.0808 124.618 61.584 119.792C77.7536 114.759 89.9888 108.393 99.3838 99.0312C108.779 89.6697 115.168 77.4776 120.22 61.3652C125.064 45.9146 128.686 26.8255 132.54 3.12207Z" fill="#F6C82C" stroke="#F6C82C"/>
</svg>
